<?xml version="1.0" encoding="utf-8"?>
<!-- Generator: Adobe Illustrator 17.1.0, SVG Export Plug-In . SVG Version: 6.00 Build 0)  -->
<!DOCTYPE svg PUBLIC "-//W3C//DTD SVG 1.1//EN" "http://www.w3.org/Graphics/SVG/1.1/DTD/svg11.dtd">
<svg version="1.1"
	 id="Drum-Set" sodipodi:version="0.32" sodipodi:docname="drums_jarno_vasamaa_.svg" inkscape:version="0.46" inkscape:output_extension="org.inkscape.output.svg.inkscape" xmlns:cc="http://creativecommons.org/ns#" xmlns:svg="http://www.w3.org/2000/svg" xmlns:sodipodi="http://sodipodi.sourceforge.net/DTD/sodipodi-0.dtd" xmlns:dc="http://purl.org/dc/elements/1.1/" xmlns:inkscape="http://www.inkscape.org/namespaces/inkscape" xmlns:rdf="http://www.w3.org/1999/02/22-rdf-syntax-ns#"
	 xmlns="http://www.w3.org/2000/svg" xmlns:xlink="http://www.w3.org/1999/xlink" x="0px" y="0px" viewBox="0 0 372.8 300.1"
	 enable-background="new 0 0 372.8 300.1" xml:space="preserve">
<sodipodi:namedview  inkscape:pageopacity="0.0" inkscape:window-y="25" inkscape:current-layer="svg2948" inkscape:window-height="715" inkscape:window-width="641" inkscape:pageshadow="2" inkscape:window-x="0" inkscape:cx="187.5" gridtolerance="10.0" guidetolerance="10.0" bordercolor="#666666" showgrid="false" id="base" inkscape:cy="187.5" inkscape:zoom="1.3173333" objecttolerance="10.0" borderopacity="1.0" pagecolor="#ffffff">
	</sodipodi:namedview>
<defs>
	
	
		<inkscape:perspective  inkscape:persp3d-origin="187.5 : 125 : 1" inkscape:vp_x="0 : 187.5 : 1" inkscape:vp_z="375 : 187.5 : 1" inkscape:vp_y="0 : 1000 : 0" id="perspective83" sodipodi:type="inkscape:persp3d">
		</inkscape:perspective>
</defs>
<g id="layer1" transform="translate(5.3349865,-38.038321)">
	
		<radialGradient id="path4029_1_" cx="-46.4536" cy="1002.6812" r="32.738" fx="-46.4664" fy="1003.502" gradientTransform="matrix(2.1578 1.730000e-02 3.350000e-02 0.643 212.9388 -324.6873)" gradientUnits="userSpaceOnUse">
		<stop  offset="0" style="stop-color:#000000"/>
		<stop  offset="1" style="stop-color:#000000;stop-opacity:0"/>
	</radialGradient>
	<path id="path4029" fill="url(#path4029_1_)" d="M209.3,318.2c0.6,11.1-29.1,19.8-66.2,19.5s-67.7-9.5-68.3-20.6
		c-0.6-11.1,29.1-19.8,66.2-19.5S208.7,307.1,209.3,318.2z"/>
	
		<radialGradient id="path3953_1_" cx="-46.4536" cy="1002.6812" r="32.738" fx="-46.4664" fy="1003.502" gradientTransform="matrix(2.1578 1.730000e-02 3.350000e-02 0.643 232.9451 -331.356)" gradientUnits="userSpaceOnUse">
		<stop  offset="0" style="stop-color:#000000"/>
		<stop  offset="1" style="stop-color:#000000;stop-opacity:0"/>
	</radialGradient>
	<path id="path3953" fill="url(#path3953_1_)" d="M229.3,311.5c0.6,11.1-29.1,19.8-66.2,19.5s-67.7-9.5-68.3-20.6
		c-0.6-11.1,29.1-19.8,66.2-19.5S228.7,300.5,229.3,311.5z"/>
	<path id="path3547" fill="none" stroke="#000000" stroke-width="6.154" d="M71.4,318.5l19.3-39.6"/>
	<path id="path3545" fill="none" stroke="#000000" stroke-width="4.6155" d="M21.2,286.6L54,249.9l-29.9,67.6L56.9,247l43.4,48.3"/>
	<path id="path3533" fill="none" stroke="#000000" stroke-width="5.2985" d="M260.3,310.7l-1.2-94l-29.5-15.4l52.8-5.6l-24.7,22.6
		l0.1-21.2"/>
	
		<linearGradient id="tom3_1_" gradientUnits="userSpaceOnUse" x1="134.4015" y1="439.1507" x2="169.5869" y2="439.7676" gradientTransform="matrix(1 0 0 1 -65.33 -244.9251)">
		<stop  offset="0" style="stop-color:#4141FF"/>
		<stop  offset="1" style="stop-color:#00007A"/>
	</linearGradient>
	<path id="tom3" fill="url(#tom3_1_)" stroke="#000000" stroke-width="0.8205" d="M74.3,155.3l-4.8,73.4c0,0,8.7,4.8,17.4,4.8
		s56-24.1,56-24.1l4.8-14.5l-1.9-20.3l-38.6-14.5L74.3,155.3z"/>
	
		<linearGradient id="path3449_1_" gradientUnits="userSpaceOnUse" x1="56.1375" y1="624.1559" x2="42.5616" y2="622.3408" gradientTransform="matrix(1.2985 0 0 0.7701 17.2933 -244.8162)">
		<stop  offset="0" style="stop-color:#000000"/>
		<stop  offset="1" style="stop-color:#8EA0AC"/>
	</linearGradient>
	<path id="path3449" fill="none" stroke="url(#path3449_1_)" stroke-width="8.7182" stroke-linecap="round" d="M70.4,231.6
		c0,0,9.7,3.9,17.4,6.8"/>
	
		<linearGradient id="path3451_1_" gradientUnits="userSpaceOnUse" x1="-29.5675" y1="745.8574" x2="-45.8784" y2="745.5012" gradientTransform="matrix(1.8483 0 0 0.541 169.466 -244.6965)">
		<stop  offset="0" style="stop-color:#000000"/>
		<stop  offset="1" style="stop-color:#8EA0AC"/>
	</linearGradient>
	<path id="path3451" fill="none" stroke="url(#path3451_1_)" stroke-width="7.6926" stroke-linecap="round" d="M74.3,154.4
		c0,0,18.3,0,32.8,2.9c14.5,2.9,15.4,5.8,15.4,5.8"/>
	
		<linearGradient id="tom2_1_" gradientUnits="userSpaceOnUse" x1="358.1364" y1="831.6541" x2="446.4936" y2="831.6541" gradientTransform="matrix(0.8833 0 0 0.7622 -218.3216 -490.584)">
		<stop  offset="0" style="stop-color:#4141FF"/>
		<stop  offset="1" style="stop-color:#00007A"/>
	</linearGradient>
	<path id="tom2" fill="url(#tom2_1_)" stroke="#000000" stroke-width="0.8205" d="M98.4,160.2l12.5-44.4c0,0,17.4-10.6,37.6-2.9
		s27,21.2,27,21.2l-9.7,42.5L98.4,160.2z"/>
	
		<linearGradient id="path3465_1_" gradientUnits="userSpaceOnUse" x1="297.4378" y1="1119.156" x2="297.3979" y2="1049.7439" gradientTransform="matrix(1.0498 0.2094 -2.330000e-02 0.3971 -155.9356 -325.5395)">
		<stop  offset="0" style="stop-color:#000087"/>
		<stop  offset="1" style="stop-color:#000000"/>
	</linearGradient>
	
		<linearGradient id="path3465_2_" gradientUnits="userSpaceOnUse" x1="331.4415" y1="1094.2249" x2="320.6995" y2="1094.6086" gradientTransform="matrix(1.0498 0.2094 -2.330000e-02 0.3971 -155.9356 -325.5395)">
		<stop  offset="0" style="stop-color:#000000"/>
		<stop  offset="1" style="stop-color:#8EA0AC"/>
	</linearGradient>
	
		<path id="path3465" fill="url(#path3465_1_)" stroke="url(#path3465_2_)" stroke-width="7.5" stroke-linecap="round" stroke-linejoin="round" d="
		M165.6,178.7c-0.4,6.8-16.3,9.3-35.6,5.5s-34.5-12.5-34.1-19.3c0.4-6.8,16.3-9.3,35.6-5.5S166,171.8,165.6,178.7L165.6,178.7z"/>
	
		<linearGradient id="path3467_1_" gradientUnits="userSpaceOnUse" x1="55.3384" y1="574.3478" x2="45.9327" y2="575.1628" gradientTransform="matrix(1.5741 0 0 0.6353 93.5699 -244.7611)">
		<stop  offset="0" style="stop-color:#000000"/>
		<stop  offset="1" style="stop-color:#8EA0AC"/>
	</linearGradient>
	<path id="path3467" fill="none" stroke="url(#path3467_1_)" stroke-width="6.0261" stroke-linecap="round" d="M109.6,114.5
		c0,0,10.3-3.9,18.8-4.8c8.5-1,13.2-1,20.7,1.9c7.5,2.9,14.1,4.8,18.8,9.7c4.7,4.8,9.4,11.6,9.4,11.6"/>
	
		<linearGradient id="tom1_1_" gradientUnits="userSpaceOnUse" x1="524.7902" y1="824.1177" x2="446.4554" y2="827.8901" gradientTransform="matrix(0.8858 0 0 0.7601 -217.6321 -490.5989)">
		<stop  offset="0" style="stop-color:#4141FF"/>
		<stop  offset="1" style="stop-color:#00007A"/>
	</linearGradient>
	<path id="tom1" fill="url(#tom1_1_)" stroke="#000000" stroke-width="0.8205" d="M174.7,158.2l4.8-43.4c0,0,19.3-10.6,35.7-7.7
		s29.9,13.5,29.9,13.5l-3.9,46.3L174.7,158.2z"/>
	
		<linearGradient id="snare-drum_1_" gradientUnits="userSpaceOnUse" x1="155.3032" y1="635.1622" x2="112.2533" y2="622.758" gradientTransform="matrix(1.4563 0 0 0.6867 60.9629 -244.787)">
		<stop  offset="0" style="stop-color:#4141FF"/>
		<stop  offset="1" style="stop-color:#00007A"/>
	</linearGradient>
	<path id="snare-drum" fill="url(#snare-drum_1_)" stroke="#000000" stroke-width="0.8205" d="M220.1,176.6l2.9,27
		c0,0,31.9-4.8,45.4-5.8c13.5-1,23.2,0,23.2,0l-1.9-27c0,0-24.1-1-34.8,0C244.2,171.7,220.1,176.6,220.1,176.6z"/>
	
		<linearGradient id="path3527_1_" gradientUnits="userSpaceOnUse" x1="-30.6197" y1="954.6362" x2="-11.8381" y2="952.5408" gradientTransform="matrix(2.2786 0 0 0.4389 288.5677 -244.681)">
		<stop  offset="0" style="stop-color:#000000"/>
		<stop  offset="1" style="stop-color:#8EA0AC"/>
	</linearGradient>
	<path id="path3527" fill="none" stroke="url(#path3527_1_)" stroke-width="7.6875" stroke-linecap="round" d="M222,176.6
		c0,0,53.5-6.1,67-6.1"/>
	
		<linearGradient id="path3493_1_" gradientUnits="userSpaceOnUse" x1="280.6718" y1="1115.5009" x2="281.5545" y2="1072.9146" gradientTransform="matrix(1.2194 0.1304 0 0.5673 -135.5957 -491.5409)">
		<stop  offset="0" style="stop-color:#000087"/>
		<stop  offset="1" style="stop-color:#000000"/>
	</linearGradient>
	
		<path id="path3493" fill="url(#path3493_1_)" stroke="#8EA0AC" stroke-width="8" stroke-linecap="round" stroke-linejoin="round" d="
		M240,168.5c0,7.5-14.7,11.9-32.7,10s-32.7-9.6-32.7-17s14.7-11.9,32.7-10S240,161,240,168.5z"/>
	<path id="path3495" fill="none" stroke="#8EA0AC" stroke-width="6.5509" stroke-linecap="round" d="M179.4,113.4
		c0,0,14-7.3,32.5-6.3c18.6,1,34.4,15.4,34.4,15.4"/>
	
		<linearGradient id="path3499_1_" gradientUnits="userSpaceOnUse" x1="702.1103" y1="680.6748" x2="716.1374" y2="783.9784" gradientTransform="matrix(0.6622 0 0 1.0168 -279.5279 -490.707)">
		<stop  offset="0" style="stop-color:#4141FF"/>
		<stop  offset="1" style="stop-color:#00007A"/>
	</linearGradient>
	<path id="path3499" fill="url(#path3499_1_)" stroke="#000000" stroke-width="0.8205" d="M149.6,191h21.2c0,0,20.3-1,30.9,5.8
		c10.6,6.8,29,14.5,31.9,36.7c2.9,22.2,3.9,40.5-7.7,52.1c-11.6,11.6-28,24.1-28,24.1l-47.3,13.5L149.6,191z"/>
	
		<linearGradient id="path3525_1_" gradientUnits="userSpaceOnUse" x1="-66.8994" y1="1020.5359" x2="-18.7861" y2="1018.1415" gradientTransform="matrix(2.2786 0 0 0.4389 287.9907 -244.9703)">
		<stop  offset="0" style="stop-color:#000000"/>
		<stop  offset="1" style="stop-color:#8EA0AC"/>
	</linearGradient>
	<path id="path3525" fill="none" stroke="url(#path3525_1_)" stroke-width="7.6875" stroke-linecap="round" d="M225.3,205.2
		c12.4-0.6,52.6-4.9,66.4-6.9"/>
	
		<linearGradient id="path3513_1_" gradientUnits="userSpaceOnUse" x1="449.1246" y1="407.9748" x2="464.4382" y2="367.4678" gradientTransform="matrix(0.7216 0 0 1.3859 -142.39 -245.1237)">
		<stop  offset="0" style="stop-color:#000000"/>
		<stop  offset="1" style="stop-color:#8EA0AC"/>
	</linearGradient>
	<path id="path3513" fill="none" stroke="url(#path3513_1_)" stroke-width="5.125" stroke-linecap="round" d="M166.4,188.8
		c0,0,23.2-2.1,45.9,13.5c15.2,10.6,21.8,22.8,23,42s-4.6,33.2-14.5,44.5s-19.1,18.6-19.1,18.6"/>
	<path id="path3497" fill="none" stroke="#5E5F60" stroke-width="6.872" stroke-linecap="round" d="M165.8,188.8v-49.2l-11.6-1
		l22.2,1"/>
	<path id="path3529" fill="none" stroke="#000000" stroke-width="3.5899" d="M316.6,284.7l-2.9-189.2"/>
	<path id="path3531" fill="none" stroke="#000000" stroke-width="5.1284" d="M265.4,288.5l48.3-68.5l51.2,73.4"/>
	<path id="path3537" fill="none" stroke="#000000" stroke-width="6.3592" d="M224.9,291.4l34.8-26.1l33.8,26.1"/>
	<path id="path3539" fill="none" stroke="#000000" stroke-width="4.0001" d="M309.8,266.3l-45.4,18.3l49.2,1L309.8,266.3z"/>
	<path id="path3541" fill="none" stroke="#000000" stroke-width="4.8207" d="M56,287.6V78.1"/>
	<path id="path3921" fill="none" stroke="#000000" stroke-width="2.7693" d="M69.5,55.9l2.9-5.8"/>
	
		<radialGradient id="high-hat_1_" cx="121.2346" cy="957.4383" r="45.0073" gradientTransform="matrix(1.2204 0.4262 0.1209 0.3411 -199.0575 -315.5964)" gradientUnits="userSpaceOnUse">
		<stop  offset="0" style="stop-color:#6D3900;stop-opacity:0.8157"/>
		<stop  offset="0.3478" style="stop-color:#E0BC3E"/>
		<stop  offset="1" style="stop-color:#E1CA43"/>
	</radialGradient>
	
		<path id="high-hat" fill="url(#high-hat_1_)" stroke="#000000" stroke-width="1.6983" stroke-linecap="round" stroke-linejoin="round" d="
		M118.8,81.6c2.9,8.2-19,6.5-48.9-4S13.4,52,10.5,43.7s19-6.5,48.9,4S115.9,73.3,118.8,81.6z"/>
	<path id="path3543" fill="none" stroke="#000000" stroke-width="3.795" d="M55,82l9.7-19.3"/>
	<path id="path3549" fill="none" stroke="#000000" stroke-width="6.4617" d="M228.8,334.9l-8.7-65.6l5.8-1"/>
	<path id="symbol" fill="#E1CA43" stroke="#000000" stroke-width="0.8205" d="M279.9,114.8l31.9-6.8l38.6,7.7c0,0-28,1.9-36.7,2.9
		C305,119.6,283.8,115.8,279.9,114.8z"/>
	<path id="path3925" fill="none" stroke="#000000" stroke-width="0.8205" d="M281.9,113.8c0,0,20.3,0,29.9,0
		c9.7,0,36.7,1.9,36.7,1.9"/>
	
		<radialGradient id="path4033_1_" cx="-68.9312" cy="1152.422" r="22.3016" gradientTransform="matrix(3.5889 0 0 0.5981 530.1432 -398.3182)" gradientUnits="userSpaceOnUse">
		<stop  offset="0" style="stop-color:#000000;stop-opacity:0.1531"/>
		<stop  offset="1" style="stop-color:#000000;stop-opacity:0"/>
	</radialGradient>
	<path id="path4033" fill="url(#path4033_1_)" d="M362.8,291c0,7.4-35.8,13.3-80,13.3s-80-6-80-13.3c0-7.4,35.8-13.3,80-13.3
		S362.8,283.6,362.8,291z"/>
	<path id="bass-drum" stroke="#8EA0AC" stroke-width="8.375" stroke-linecap="round" stroke-linejoin="round" d="M202.7,254.3
		c0,36.5-27,66.1-60.3,66.1S82,290.8,82,254.3c0-36.5,27-66.1,60.3-66.1S202.7,217.8,202.7,254.3z"/>
	
		<radialGradient id="path4043_1_" cx="-51.0002" cy="938.3354" r="22.3017" gradientTransform="matrix(3.0207 0 0 1.2561 216.0754 -887.6691)" gradientUnits="userSpaceOnUse">
		<stop  offset="0" style="stop-color:#000000;stop-opacity:0.1531"/>
		<stop  offset="1" style="stop-color:#000000;stop-opacity:0"/>
	</radialGradient>
	<path id="path4043" fill="url(#path4043_1_)" d="M129.4,291c0,15.5-30.1,28-67.4,28s-67.4-12.5-67.4-28c0-15.5,30.1-28,67.4-28
		S129.4,275.5,129.4,291z"/>
	
		<radialGradient id="path4047_1_" cx="-51.0001" cy="938.3356" r="22.3017" gradientTransform="matrix(3.0207 0 0 1.2561 390.797 -875.6653)" gradientUnits="userSpaceOnUse">
		<stop  offset="0" style="stop-color:#000000;stop-opacity:0.1531"/>
		<stop  offset="1" style="stop-color:#000000;stop-opacity:0"/>
	</radialGradient>
	<path id="path4047" fill="url(#path4047_1_)" d="M304.1,303c0,15.5-30.1,28-67.4,28s-67.4-12.5-67.4-28c0-15.5,30.1-28,67.4-28
		S304.1,287.5,304.1,303z"/>
</g>
</svg>
